<svg width="159.99999999999997" height="46" xmlns="http://www.w3.org/2000/svg">
 <defs>
  <clipPath id="clip0">
   <rect id="svg_1" fill="white" height="46" width="39.0194"/>
  </clipPath>
  <clipPath id="clip1">
   <rect id="svg_2" x="50" y="12" fill="white" height="21.6435" width="110"/>
  </clipPath>
 </defs>
 <g>
  <title>background</title>
  <rect fill="none" id="canvas_background" height="402" width="582" y="-1" x="-1"/>
 </g>
 <g>
  <title>Layer 1</title>
  <g id="svg_3" clip-path="url(#clip0)">
   <path id="svg_4" fill="#1D2A38" d="m36.7229,33.8639c-0.6141,1.0807 -1.3387,2.0976 -2.164,3.0334l0.0222,0.0221l-0.7664,0.7688c-3.4117,3.4314 -7.9532,5.3226 -12.7895,5.3226c-4.8166,0 -9.3459,-1.8765 -12.75267,-5.2833c-3.40677,-3.4067 -5.28332,-7.936 -5.28332,-12.7527c0,-0.3561 0.00983,-0.7172 0.03193,-1.0758c0.00246,-0.0491 0.00492,-0.0982 0.00983,-0.1498l0,-0.0147c0.00246,-0.032 0.00491,-0.0664 0.00737,-0.0983l0,-0.0172c0.00491,-0.0737 0.01228,-0.1498 0.01965,-0.2235c0.00491,-0.0614 0.00982,-0.1253 0.01719,-0.1916c0.00983,-0.0958 0.01965,-0.194 0.02948,-0.2898c0.00736,-0.0565 0.01228,-0.1204 0.0221,-0.1818c0.00983,-0.0786 0.01965,-0.1695 0.03193,-0.2579c0.00737,-0.0491 0.01474,-0.0982 0.02211,-0.1474c0.00982,-0.081 0.02456,-0.1719 0.0393,-0.2603c0.00737,-0.0467 0.01719,-0.1007 0.02456,-0.1523c0.00737,-0.0442 0.01474,-0.0884 0.02456,-0.1326c0.00983,-0.0565 0.02211,-0.1228 0.03439,-0.1867c0.00982,-0.0565 0.02211,-0.1179 0.03439,-0.1793c0.01473,-0.0712 0.02701,-0.14 0.04421,-0.2137c0.10316,-0.4912 0.23088,-0.9849 0.3758,-1.4664l0.00491,-0.0122c0.0172,-0.0639 0.03684,-0.1278 0.05895,-0.1892c0.01719,-0.054 0.03439,-0.108 0.05158,-0.1645c0.10316,-0.3144 0.21615,-0.6337 0.3365,-0.9408c0.0172,-0.0417 0.03439,-0.0884 0.05158,-0.1326c0.01965,-0.0467 0.03685,-0.0958 0.05895,-0.1474c0.02456,-0.0589 0.05158,-0.1252 0.0786,-0.1916c0.01965,-0.0491 0.04421,-0.1056 0.06878,-0.1596l0.00982,-0.0246c0.03439,-0.0737 0.06632,-0.1498 0.1007,-0.2235c0.02457,-0.0565 0.04913,-0.1105 0.07615,-0.1646c0.4544,-0.9824 1.00705,-1.9305 1.63829,-2.8197l0.10316,-0.14c0.07123,-0.0982 0.14246,-0.1965 0.21615,-0.2898c0.03439,-0.0442 0.07123,-0.0934 0.10807,-0.14c0.0786,-0.1032 0.15966,-0.2039 0.23826,-0.3021c0.04667,-0.0565 0.09333,-0.1179 0.14246,-0.1744c0.04421,-0.0541 0.09333,-0.1106 0.14246,-0.1695c0.04667,-0.0565 0.09825,-0.1155 0.14737,-0.172c0.05649,-0.0638 0.11299,-0.1301 0.16948,-0.194l-2.11726,-2.1197c-3.51238,3.8636 -5.44297,8.8571 -5.44297,14.1085c0,5.6174 2.18603,10.8958 6.15773,14.8675c3.97167,3.9717 9.25007,6.1577 14.86747,6.1577c5.6346,0 10.9277,-2.2008 14.9019,-6.1946c1.1347,-1.1397 2.1344,-2.4022 2.9769,-3.7604l-2.1811,-2.1787z"/>
   <path id="svg_5" fill="white" d="m9.81255,36.1875c2.99415,2.9941 6.97805,4.6447 11.21265,4.6447c0.1326,0 0.2652,-0.0025 0.3979,-0.0049c0.0663,0 0.1301,-0.0025 0.1965,-0.0049l0.0098,0c0.0982,-0.005 0.194,-0.0099 0.2923,-0.0148c0.0786,-0.0049 0.1547,-0.0098 0.2333,-0.0147c0.0393,-0.0025 0.0737,-0.0049 0.1056,-0.0074l0.0541,-0.0049c0.0712,-0.0049 0.1424,-0.0123 0.2161,-0.0197c0.0639,-0.0049 0.1228,-0.0098 0.1842,-0.0171c0.0442,-0.005 0.0835,-0.0099 0.1204,-0.0123l0.081,-0.0099c0.0516,-0.0073 0.1032,-0.0122 0.1572,-0.0196c0.1965,-0.0246 0.3881,-0.0516 0.5773,-0.0835c0.054,-0.0098 0.1056,-0.0197 0.1572,-0.027l0.0171,-0.0025c0.0418,-0.0074 0.0836,-0.0147 0.1229,-0.0221l0.0196,-0.0049c0.054,-0.0098 0.1081,-0.0197 0.1621,-0.0319c0.1425,-0.0271 0.2825,-0.0565 0.42,-0.0885c0.0934,-0.0196 0.1867,-0.0442 0.28,-0.0663l0.0123,-0.0024c0.0246,-0.0049 0.0467,-0.0099 0.0712,-0.0172c0.0688,-0.0172 0.1302,-0.0344 0.1941,-0.0491c0.054,-0.0148 0.1056,-0.0271 0.1547,-0.0418c0.0442,-0.0123 0.0835,-0.0221 0.1204,-0.0344c0.0368,-0.0098 0.0663,-0.0172 0.0933,-0.027l0.0221,-0.0074c0.0393,-0.0098 0.0786,-0.0221 0.1179,-0.0344c0.0663,-0.0196 0.1228,-0.0368 0.1793,-0.0565c0.0467,-0.0147 0.086,-0.027 0.1302,-0.0393c0.1326,-0.0442 0.2653,-0.0884 0.3955,-0.1351c0.0368,-0.0122 0.0712,-0.0245 0.1056,-0.0368l0.027,-0.0098c0.0467,-0.0172 0.0884,-0.032 0.1277,-0.0467c0.0663,-0.0245 0.1228,-0.0467 0.1818,-0.0688c0.0491,-0.0196 0.0933,-0.0344 0.1351,-0.0515c0.081,-0.032 0.1547,-0.0614 0.2284,-0.0934l0.2211,-0.0933c0.0687,-0.0295 0.1375,-0.059 0.2014,-0.0884c0.0393,-0.0172 0.0712,-0.032 0.1056,-0.0467l0.0319,-0.0147c0.054,-0.0246 0.1081,-0.0516 0.1621,-0.0762c0.3341,-0.1596 0.6632,-0.3291 0.9801,-0.5109c0.0343,-0.0196 0.0663,-0.0393 0.1007,-0.0565c0.0736,-0.0417 0.1473,-0.0859 0.2186,-0.1277l0.3635,-0.2235c0.1596,-0.1032 0.3267,-0.2112 0.506,-0.3341c0.0491,-0.0343 0.0982,-0.0687 0.1473,-0.1031l0.0197,-0.0148c0.0368,-0.027 0.0737,-0.0515 0.1105,-0.0786l0.0098,-0.0073c0.0271,-0.0197 0.0541,-0.0393 0.0811,-0.059l0.0098,-0.0073c0.0467,-0.032 0.0909,-0.0664 0.1351,-0.1007c0.0516,-0.0369 0.1007,-0.0762 0.1474,-0.113c0.0344,-0.0271 0.0614,-0.0492 0.0909,-0.0713l0.0343,-0.027c0.0492,-0.0393 0.1007,-0.0786 0.1499,-0.1203c0.0516,-0.0418 0.1031,-0.0835 0.1523,-0.1228l0.0122,-0.0099c0.0958,-0.0786 0.1892,-0.1596 0.285,-0.2407c0.0294,-0.0245 0.0565,-0.0491 0.0859,-0.0761l-2.1197,-2.1222c-2.3211,1.9797 -5.2661,3.0629 -8.3364,3.0629c-7.0935,0 -12.86562,-5.7721 -12.86562,-12.8656c0,-3.4584 1.35338,-6.7031 3.80712,-9.1372c1.152,-1.1421 2.5324,-2.0681 4.0233,-2.7043l-2.2499,-2.2499c-1.4344,0.7443 -2.7436,1.6997 -3.89555,2.8443c-3.02115,2.9991 -4.684,6.9904 -4.684,11.2446c0,4.237 1.65057,8.2185 4.6447,11.2151z"/>
   <path id="svg_6" fill="white" d="m39.0195,21.0252c0,-5.6174 -2.1861,-10.8958 -6.1578,-14.86747c-3.9717,-3.9717 -9.2525,-6.15773 -14.8699,-6.15773c-5.6346,0 -10.9277,2.19831 -14.8994,6.19457c-1.13478,1.13723 -2.13445,2.40218 -2.97939,3.76047l2.18357,2.18356c0.61406,-1.0807 1.33864,-2.0976 2.16393,-3.03341l-0.02211,-0.02211l0.76634,-0.76879c3.40923,-3.43133 7.95326,-5.32262 12.78956,-5.32262c4.8166,0 9.3459,1.87655 12.7526,5.28332c3.4068,3.40681 5.2833,7.93361 5.2833,12.75271c0,0.3561 -0.0098,0.7196 -0.0319,1.0758c-0.0024,0.0466 -0.0049,0.0982 -0.0098,0.1498c-0.0025,0.0369 -0.0049,0.0737 -0.0074,0.1105l0,0.0172c-0.0049,0.0737 -0.0123,0.1499 -0.0196,0.2235c-0.0049,0.0615 -0.0099,0.1278 -0.0172,0.1941c-0.0099,0.0933 -0.0197,0.1916 -0.0295,0.2898c-0.0074,0.0565 -0.0123,0.1179 -0.0221,0.1818c-0.0098,0.0786 -0.0197,0.167 -0.0319,0.2579c-0.0074,0.0491 -0.0148,0.0982 -0.0221,0.1449c-0.0099,0.0835 -0.0246,0.1719 -0.0393,0.2628c-0.0074,0.0467 -0.0172,0.1007 -0.0246,0.1523c-0.0074,0.0442 -0.0147,0.0884 -0.0246,0.1326c-0.0098,0.0565 -0.0221,0.1228 -0.0344,0.1867c-0.0098,0.0565 -0.0221,0.1179 -0.0368,0.1793c-0.0123,0.0688 -0.027,0.14 -0.0442,0.2137c-0.1032,0.4912 -0.2309,0.9874 -0.3758,1.4664c-0.0197,0.0663 -0.0393,0.1351 -0.0639,0.2038c-0.0172,0.0541 -0.0344,0.1081 -0.0516,0.1646c-0.1031,0.3168 -0.2161,0.6337 -0.3365,0.9407c-0.0171,0.0418 -0.0343,0.086 -0.0515,0.1302c-0.0197,0.0491 -0.0393,0.0983 -0.059,0.1474c-0.0245,0.0589 -0.0516,0.1252 -0.0786,0.1916c-0.0196,0.0491 -0.0442,0.1056 -0.0688,0.1596l-0.0098,0.0246c-0.0344,0.0737 -0.0663,0.1498 -0.1007,0.2235c-0.0245,0.0565 -0.0491,0.1105 -0.0761,0.1646c-0.4544,0.9824 -1.0071,1.9305 -1.6383,2.8197l-0.1007,0.14c-0.0737,0.1007 -0.1449,0.1965 -0.2162,0.2898c-0.0344,0.0467 -0.0712,0.0934 -0.108,0.14c-0.0786,0.1032 -0.1597,0.2039 -0.2383,0.3022c-0.0467,0.0564 -0.0933,0.1179 -0.1425,0.1743c-0.0417,0.0516 -0.0859,0.1057 -0.1326,0.1597l-0.0098,0.0098c-0.0491,0.0565 -0.0983,0.1155 -0.1499,0.172c-0.0564,0.0638 -0.1129,0.1301 -0.1694,0.194l2.1172,2.1197c3.5149,-3.8636 5.4455,-8.8596 5.4455,-14.1134z"/>
   <path id="svg_7" fill="#1D2A38" d="m23.027,32.8692l2.2499,2.2499c1.4344,-0.7443 2.7436,-1.6997 3.8955,-2.8443c3.0187,-2.9991 4.6791,-6.9929 4.6791,-11.247c0,-4.2346 -1.6505,-8.2185 -4.6447,-11.21267c-2.9966,-2.99658 -6.9781,-4.64716 -11.215,-4.64716c-0.1327,0 -0.2653,0.00245 -0.398,0.00491c-0.0663,0 -0.1301,0.00246 -0.1965,0.00491l-0.0073,0c-0.0983,0.00492 -0.1941,0.00983 -0.2923,0.01474c-0.0786,0.00491 -0.1548,0.00983 -0.2334,0.01474c-0.0393,0.00245 -0.0736,0.00491 -0.1056,0.00737l-0.054,0.00491c-0.0688,0.00491 -0.1425,0.01228 -0.2137,0.01965c-0.0639,0.00737 -0.1228,0.01228 -0.1842,0.01965c-0.0442,0.00491 -0.0835,0.00982 -0.1204,0.01228l-0.0614,0.00737c-0.0073,0 -0.0147,0.00245 -0.0196,0.00245c-0.0516,0.00492 -0.1032,0.01229 -0.1548,0.01965c-0.1965,0.02457 -0.388,0.05404 -0.5772,0.08352c-0.054,0.00982 -0.1056,0.01719 -0.1572,0.02701l-0.0172,0.00246c-0.0417,0.00737 -0.081,0.01474 -0.1203,0.02211l-0.027,0.00491c-0.0516,0.00982 -0.1032,0.01965 -0.1572,0.02947c-0.1474,0.02702 -0.2874,0.0565 -0.425,0.08843c-0.0933,0.01965 -0.1866,0.04421 -0.28,0.06631l-0.0123,0.00246c-0.0245,0.00491 -0.0466,0.00983 -0.0712,0.01719c-0.0688,0.0172 -0.1302,0.03439 -0.194,0.04913c-0.0541,0.01474 -0.1032,0.02702 -0.1548,0.04175c-0.0442,0.01229 -0.0835,0.02211 -0.1228,0.03439c-0.0368,0.00983 -0.0663,0.01965 -0.0933,0.02702l-0.0221,0.00737c-0.0393,0.00982 -0.0786,0.0221 -0.1179,0.03439c-0.0663,0.01965 -0.1228,0.03684 -0.1793,0.05649c-0.0467,0.01474 -0.086,0.02702 -0.1302,0.0393c-0.1326,0.04421 -0.2653,0.08842 -0.3954,0.13509c-0.0369,0.01228 -0.0688,0.02456 -0.1032,0.03684l-0.0295,0.00983c-0.0442,0.01719 -0.0835,0.02947 -0.1228,0.04667c-0.0688,0.02456 -0.1277,0.04666 -0.1867,0.07123c-0.0491,0.01965 -0.0908,0.03684 -0.1351,0.05403c-0.081,0.03193 -0.1547,0.06141 -0.2284,0.09334l-0.221,0.09334c-0.0688,0.02947 -0.1351,0.05895 -0.2015,0.08842c-0.0368,0.01719 -0.0712,0.03193 -0.1056,0.04667l-0.0319,0.01474c-0.054,0.02456 -0.1081,0.05158 -0.1621,0.07614c-0.3341,0.15965 -0.6632,0.32913 -0.98,0.51089c-0.0369,0.01965 -0.0664,0.03684 -0.1007,0.05649c-0.0688,0.0393 -0.14005,0.08106 -0.20637,0.12036l-0.22843,0.14c-0.04667,0.02948 -0.09579,0.06141 -0.14492,0.09088c-0.16211,0.10316 -0.32667,0.21124 -0.50352,0.33405c-0.04667,0.03193 -0.09088,0.06386 -0.13509,0.09333l-0.02948,0.01965c-0.04175,0.02948 -0.0786,0.0565 -0.11544,0.08352l-0.01474,0.00982c-0.02456,0.01965 -0.04912,0.03684 -0.07614,0.05649l-0.00982,0.00737c-0.04667,0.03193 -0.09088,0.06632 -0.13509,0.10071c-0.05159,0.03684 -0.09825,0.07614 -0.14738,0.11298c-0.03439,0.02702 -0.06386,0.04913 -0.09088,0.07123l-0.03438,0.02702c-0.04913,0.0393 -0.10071,0.0786 -0.14983,0.12036c-0.0565,0.04421 -0.11053,0.09088 -0.16457,0.13509c-0.09579,0.0786 -0.18913,0.1572 -0.28492,0.24071c-0.02948,0.02456 -0.05649,0.04912 -0.08597,0.07614l2.12217,2.12216c2.3211,-1.9797 5.2661,-3.06535 8.3364,-3.06535c7.0935,0 12.8656,5.77215 12.8656,12.86565c0,3.4584 -1.3533,6.703 -3.8071,9.1371c-1.1495,1.1373 -2.5299,2.0657 -4.0208,2.7019z"/>
  </g>
  <g id="svg_8" clip-path="url(#clip1)">
   <path id="svg_9" fill="white" d="m57.9196,30.2354l-0.6137,1.8542l1.2405,0l-0.6137,-1.8542l-0.0131,0z"/>
   <path id="svg_10" fill="white" d="m58.8076,19.7499c-0.209,0.9336 -0.6072,1.6453 -1.1818,2.135c-0.5876,0.47 -1.2992,0.7116 -2.148,0.7116c-0.6921,0 -1.3319,-0.1763 -1.9391,-0.5223c-0.5876,-0.346 -1.025,-0.8814 -1.2993,-1.5931c-0.3003,-0.7116 -0.4374,-1.5604 -0.4374,-2.5136c0,-0.7443 0.124,-1.4756 0.3656,-2.1676c0.2416,-0.6986 0.6594,-1.2536 1.234,-1.6649c0.5876,-0.3983 1.3319,-0.6072 2.2003,-0.6072c0.7638,0 1.3841,0.1763 1.8868,0.5549c0.5028,0.3657 0.8814,0.9533 1.1426,1.7694l0.0326,0.0849l1.7367,-0.3983l-0.0326,-0.1045c-0.3265,-1.0772 -0.901,-1.926 -1.7171,-2.5332c-0.8161,-0.5876 -1.8216,-0.8814 -3.0164,-0.8814c-1.0381,0 -2.0109,0.2285 -2.8989,0.6921c-0.8618,0.4831 -1.5539,1.1752 -2.0239,2.0827c-0.4701,0.901 -0.7117,1.9718 -0.7117,3.1731c0,1.1099 0.2089,2.1676 0.6268,3.1208c0.4178,0.9728 1.0381,1.7367 1.8542,2.2395c0.7965,0.5223 1.8542,0.7834 3.1404,0.7834c1.234,0 2.2917,-0.346 3.1535,-1.0054c0.8684,-0.6594 1.456,-1.6453 1.789,-2.9119l0.0326,-0.1045l-1.7498,-0.4309l-0.0391,0.0914z"/>
   <path id="svg_11" fill="white" d="m74.6925,12.7835c-0.8879,-0.5223 -1.8934,-0.7835 -2.9837,-0.7835c-1.6845,0 -3.0686,0.555 -4.1263,1.6453c-1.0577,1.0903 -1.5931,2.6377 -1.5931,4.5572c0,1.0251 0.2286,1.9914 0.6921,2.9119c0.4505,0.9206 1.1295,1.6453 2.0109,2.1872c0.8814,0.5354 1.8934,0.7966 2.9968,0.7966c1.0381,0 2.0109,-0.2416 2.8924,-0.7313c0.901,-0.4701 1.593,-1.1948 2.0958,-2.1349c0.4831,-0.9206 0.7312,-1.9914 0.7312,-3.1731c0,-1.1622 -0.2416,-2.2003 -0.6921,-3.1209c-0.4635,-0.9075 -1.1425,-1.6387 -2.024,-2.1545zm-0.1893,8.6313c-0.7312,0.7769 -1.6845,1.1817 -2.8074,1.1817c-1.11,0 -2.0436,-0.3983 -2.7944,-1.1621c-0.7313,-0.7835 -1.11,-1.8543 -1.11,-3.2058c0,-1.6844 0.3983,-2.9119 1.1622,-3.6235c0.7639,-0.7117 1.6975,-1.0773 2.7552,-1.0773c0.7639,0 1.4364,0.1893 2.0436,0.5549c0.5876,0.3657 1.0577,0.901 1.3711,1.58c0.3133,0.6791 0.47,1.4887 0.47,2.4092c0,1.4364 -0.3656,2.5659 -1.0903,3.3429z"/>
   <path id="svg_12" fill="white" d="m92.5688,12.5027l-2.7944,7.9588c-0.2285,0.6399 -0.3982,1.1426 -0.5223,1.5409l-0.4701,-1.3842l-2.7878,-8.2199l-0.1894,0l0,4.2503l2.5855,7.4561l1.5408,0l2.6377,-7.443l0,-4.159z"/>
   <path id="svg_13" fill="white" d="m85.1781,12.3983l-1.6976,0l0,11.7064l1.6976,0l0,-11.7064z"/>
   <path id="svg_14" fill="white" d="m94.8736,12.3983l-1.6845,0l0,11.7064l1.6845,0l0,-11.7064z"/>
   <path id="svg_15" fill="white" d="m102.695,12.3983l-1.75,0l0,11.7064l1.75,0l0,-11.7064z"/>
   <path id="svg_16" fill="white" d="m109.733,14.2198c-0.261,-0.4831 -0.574,-0.8814 -0.985,-1.1425c-0.399,-0.2808 -0.901,-0.4701 -1.476,-0.555c-0.418,-0.0849 -1.025,-0.124 -1.802,-0.124l-2.148,0l0,1.5604l2.272,0c0.692,0 1.162,0.0326 1.423,0.1044c0.379,0.1045 0.693,0.3134 0.921,0.6399c0.242,0.3264 0.346,0.7116 0.346,1.1817c0,0.6268 -0.189,1.1099 -0.588,1.456c-0.398,0.346 -1.09,0.5223 -2.063,0.5223l-2.304,0l0,1.58l2.291,0c1.665,0 2.86,-0.3656 3.5,-1.0577c0.659,-0.6921 0.986,-1.5408 0.986,-2.5463c-0.007,-0.5941 -0.131,-1.136 -0.373,-1.6192z"/>
   <path id="svg_17" fill="white" d="m120.741,12.3983l-4.576,11.7064l1.854,0l0.522,-1.3711l-0.02,0l1.319,-3.5518l0.281,-0.7312l0.973,-2.5855l0.019,0c0.209,-0.5745 0.379,-1.1621 0.523,-1.7367c0.176,0.555 0.418,1.234 0.711,1.9914l1.182,3.049l-2.997,0l-0.535,1.4364l4.094,0l1.371,3.4864l1.991,0l-4.89,-11.7064l-1.822,0l0,0.0131z"/>
   <path id="svg_18" fill="white" d="m134.968,12.3983l-1.632,0l0,11.7064l1.632,0l0,-11.7064z"/>
   <path id="svg_19" fill="white" d="m141.066,21.1928l-0.033,-0.0523l0,2.9642l1.731,0l0,-11.7064l-1.698,0l0,8.7945z"/>
   <path id="svg_20" fill="white" d="m135.588,16.1459l4.819,7.0709l0,-2.9968l-4.819,-7.0578l0,2.9837z"/>
   <path id="svg_21" fill="white" d="m157.917,12.3983l-2.304,3.4342c-0.451,0.679 -0.849,1.3188 -1.195,1.8738l0,-0.0196l-0.973,1.4756l0,4.9424l1.769,0l0,-4.9424l4.766,-6.764l-2.063,0z"/>
   <path id="svg_22" fill="white" d="m154.052,17.0795l-0.725,-1.1621l-2.343,-3.5191l-2.149,0l4.231,6.209l0.986,-1.5278z"/>
   <path id="svg_23" fill="white" d="m50,29.9416l1.1622,0l0,3.6693l0.6463,0l0,-3.6693l1.1622,0l0,-0.5745l-2.9707,0l0,0.5745z"/>
   <path id="svg_24" fill="white" d="m57.6585,29.3671l-1.5409,4.2438l0.6791,0l0.3264,-0.9467l1.6127,0l0.3264,0.9467l0.679,0l-1.5408,-4.2438l-0.5419,0zm-0.3526,2.7225l0.6137,-1.8542l0.0131,0l0.6137,1.8542l-1.2405,0z"/>
   <path id="svg_25" fill="white" d="m65.0362,31.8807l0.8618,0l0,0.222c-0.0065,0.2677 -0.0849,0.4831 -0.2481,0.6464c-0.1632,0.1697 -0.3721,0.2546 -0.6202,0.2546c-0.1502,0 -0.2808,-0.0327 -0.3918,-0.0979c-0.111,-0.0523 -0.2024,-0.1241 -0.2677,-0.2155c-0.0848,-0.0914 -0.1371,-0.2089 -0.1632,-0.3591c-0.0326,-0.1502 -0.0457,-0.4309 -0.0457,-0.8488c0,-0.4178 0.0131,-0.6986 0.0457,-0.8553c0.0261,-0.1436 0.0849,-0.2611 0.1632,-0.3525c0.0653,-0.0849 0.1567,-0.1632 0.2677,-0.2155c0.111,-0.0587 0.2416,-0.0849 0.3918,-0.0914c0.2024,0.0065 0.3787,0.0653 0.5223,0.1763c0.1371,0.1175 0.235,0.2677 0.2873,0.4374l0.679,0c-0.0653,-0.3525 -0.2285,-0.6529 -0.4897,-0.8944c-0.2612,-0.2416 -0.5941,-0.3591 -0.9989,-0.3656c-0.333,0.0065 -0.6138,0.0848 -0.8357,0.2415c-0.2285,0.1502 -0.3918,0.3265 -0.4962,0.5223c-0.0653,0.1045 -0.111,0.2351 -0.1437,0.4048c-0.0261,0.1698 -0.0457,0.4962 -0.0457,0.9924c0,0.4832 0.0131,0.8162 0.0457,0.9859c0.0131,0.0914 0.0327,0.1698 0.0588,0.2285c0.0261,0.0588 0.0522,0.1175 0.0849,0.1828c0.1044,0.1959 0.2677,0.3657 0.4962,0.5158c0.2219,0.1567 0.5027,0.2351 0.8357,0.2416c0.4309,-0.0065 0.79,-0.1567 1.0773,-0.4374c0.2807,-0.2873 0.4309,-0.6399 0.4374,-1.0708l0,-0.8618l-1.5082,0l0,0.6137z"/>
   <path id="svg_26" fill="white" d="m71.5129,29.3671l-0.6398,0l0,4.2438l2.7095,0l0,-0.6072l-2.0697,0l0,-3.6366z"/>
   <path id="svg_27" fill="white" d="m78.4075,29.3671l-0.6398,0l0,4.2438l0.6398,0l0,-4.2438z"/>
   <path id="svg_28" fill="white" d="m85.4131,32.3834l-0.0065,0l-1.9261,-3.0163l-0.6006,0l0,4.2438l0.6398,0l0,-3.0164l0.0131,0l1.9195,3.0164l0.6072,0l0,-4.2438l-0.6464,0l0,3.0163z"/>
   <path id="svg_29" fill="white" d="m90.5318,33.6109l2.7095,0l0,-0.6072l-2.0631,0l0,-1.247l1.7628,0l0,-0.5681l-1.7628,0l0,-1.2143l2.0631,0l0,-0.6072l-2.7095,0l0,4.2438z"/>
   <path id="svg_30" fill="white" d="m103.805,31.8807l0.862,0l0,0.222c-0.007,0.2677 -0.085,0.4831 -0.248,0.6464c-0.163,0.1697 -0.372,0.2546 -0.62,0.2546c-0.151,0 -0.281,-0.0327 -0.392,-0.0979c-0.111,-0.0523 -0.202,-0.1241 -0.268,-0.2155c-0.085,-0.0914 -0.137,-0.2089 -0.163,-0.3591c-0.033,-0.1502 -0.046,-0.4309 -0.046,-0.8488c0,-0.4178 0.013,-0.6986 0.046,-0.8553c0.026,-0.1436 0.085,-0.2611 0.163,-0.3525c0.066,-0.0849 0.157,-0.1632 0.268,-0.2155c0.111,-0.0587 0.241,-0.0849 0.392,-0.0914c0.209,0.0065 0.378,0.0653 0.522,0.1763c0.137,0.1175 0.235,0.2677 0.287,0.4374l0.679,0c-0.065,-0.3525 -0.228,-0.6529 -0.489,-0.8944c-0.255,-0.2416 -0.595,-0.3591 -0.999,-0.3656c-0.333,0.0065 -0.614,0.0848 -0.836,0.2415c-0.229,0.1502 -0.392,0.3265 -0.496,0.5223c-0.066,0.1045 -0.111,0.2351 -0.144,0.4048c-0.026,0.1698 -0.046,0.4962 -0.046,0.9924c0,0.4832 0.013,0.8162 0.046,0.9859c0.013,0.0914 0.033,0.1698 0.059,0.2285c0.026,0.0588 0.052,0.1175 0.085,0.1828c0.104,0.1959 0.267,0.3657 0.496,0.5158c0.222,0.1567 0.503,0.2351 0.836,0.2416c0.431,-0.0065 0.79,-0.1567 1.077,-0.4374c0.281,-0.2873 0.431,-0.6399 0.437,-1.0708l0,-0.8618l-1.508,0l0,0.6137z"/>
   <path id="svg_31" fill="white" d="m112.339,30.0918c-0.098,-0.1959 -0.262,-0.3722 -0.484,-0.5223c-0.228,-0.1567 -0.509,-0.2351 -0.842,-0.2416c-0.333,0.0065 -0.614,0.0849 -0.836,0.2416c-0.228,0.1501 -0.391,0.3264 -0.496,0.5223c-0.065,0.1044 -0.111,0.235 -0.143,0.4048c-0.026,0.1697 -0.046,0.4962 -0.046,0.9924c0,0.4831 0.013,0.8161 0.046,0.9858c0.013,0.0914 0.032,0.1698 0.058,0.2286c0.027,0.0587 0.053,0.1175 0.085,0.1828c0.105,0.1958 0.268,0.3656 0.496,0.5158c0.222,0.1566 0.503,0.235 0.836,0.2415c0.34,-0.0065 0.62,-0.0914 0.842,-0.2415c0.222,-0.1502 0.386,-0.32 0.484,-0.5158c0.071,-0.1045 0.124,-0.2416 0.15,-0.4114c0.026,-0.1697 0.039,-0.4962 0.039,-0.9858c0,-0.4897 -0.013,-0.8227 -0.039,-0.9924c-0.026,-0.1633 -0.079,-0.3004 -0.15,-0.4048zm-0.503,2.2459c-0.033,0.1502 -0.092,0.2677 -0.17,0.3591c-0.065,0.0849 -0.15,0.1567 -0.255,0.2155c-0.111,0.0653 -0.248,0.0979 -0.398,0.0979c-0.15,0 -0.281,-0.0326 -0.392,-0.0979c-0.111,-0.0522 -0.202,-0.1241 -0.267,-0.2155c-0.085,-0.0914 -0.137,-0.2089 -0.163,-0.3591c-0.033,-0.1501 -0.046,-0.4309 -0.046,-0.8487c0,-0.4179 0.013,-0.6986 0.046,-0.8553c0.026,-0.1437 0.084,-0.2612 0.163,-0.3526c0.065,-0.0849 0.156,-0.1632 0.267,-0.2154c0.111,-0.0588 0.242,-0.0849 0.392,-0.0915c0.15,0.0066 0.287,0.0327 0.398,0.0915c0.105,0.0587 0.19,0.1305 0.255,0.2154c0.085,0.0914 0.144,0.2089 0.17,0.3526c0.026,0.1501 0.046,0.4374 0.046,0.8553c0,0.4178 -0.014,0.6986 -0.046,0.8487z"/>
   <path id="svg_32" fill="white" d="m116.85,33.6109l2.71,0l0,-0.6072l-2.064,0l0,-1.247l1.763,0l0,-0.5681l-1.763,0l0,-1.2143l2.064,0l0,-0.6072l-2.71,0l0,4.2438z"/>
   <path id="svg_33" fill="white" d="m125.325,31.1886c-0.203,-0.0261 -0.359,-0.0457 -0.477,-0.0653c-0.209,-0.0391 -0.359,-0.1109 -0.457,-0.2089c-0.098,-0.0979 -0.144,-0.2089 -0.144,-0.333c0.007,-0.2024 0.072,-0.359 0.216,-0.457c0.13,-0.0979 0.3,-0.1501 0.496,-0.1501c0.385,0.0065 0.731,0.1175 1.051,0.3264l0.359,-0.5288c-0.391,-0.2808 -0.848,-0.431 -1.377,-0.4375c-0.438,0.0065 -0.777,0.1175 -1.019,0.346c-0.248,0.2286 -0.372,0.5289 -0.372,0.8945c0,0.3069 0.098,0.568 0.294,0.7835c0.189,0.2089 0.47,0.346 0.836,0.4048c0.202,0.0261 0.391,0.0522 0.561,0.0783c0.372,0.0653 0.555,0.2547 0.555,0.5681c-0.007,0.3852 -0.287,0.581 -0.836,0.5876c-0.463,-0.0066 -0.868,-0.1437 -1.208,-0.4244l-0.424,0.4831c0.451,0.3852 0.992,0.5811 1.619,0.5811c0.973,-0.0131 1.469,-0.4244 1.489,-1.234c0,-0.3003 -0.092,-0.5615 -0.281,-0.79c-0.189,-0.222 -0.483,-0.3656 -0.881,-0.4244z"/>
   <path id="svg_34" fill="white" d="m138.069,31.1886l-1.678,0l0,-1.8215l-0.646,0l0,4.2438l0.646,0l0,-1.8542l1.678,0l0,1.8542l0.647,0l0,-4.2438l-0.647,0l0,1.8215z"/>
   <path id="svg_35" fill="white" d="m143.188,33.6109l2.709,0l0,-0.6072l-2.069,0l0,-1.247l1.763,0l0,-0.5681l-1.763,0l0,-1.2143l2.069,0l0,-0.6072l-2.709,0l0,4.2438z"/>
   <path id="svg_36" fill="white" d="m153.021,30.5488c-0.014,-0.3917 -0.151,-0.6921 -0.425,-0.9075c-0.222,-0.1894 -0.509,-0.2808 -0.862,-0.2808l-1.658,0l0,4.2439l0.646,0l0,-1.8151l0.823,0l0.875,1.8151l0.764,0l-0.986,-1.8804c0.542,-0.2024 0.816,-0.5941 0.823,-1.1752zm-2.299,0.679l0,-1.2862l1.006,0c0.202,0 0.365,0.0457 0.47,0.1306c0.137,0.0979 0.209,0.2612 0.215,0.4831c0,0.1828 -0.058,0.3395 -0.176,0.4636c-0.117,0.1371 -0.3,0.2089 -0.542,0.2089l-0.973,0z"/>
   <path id="svg_37" fill="white" d="m157.29,33.6109l2.71,0l0,-0.6072l-2.07,0l0,-1.247l1.763,0l0,-0.5681l-1.763,0l0,-1.2143l2.07,0l0,-0.6072l-2.71,0l0,4.2438z"/>
  </g>
 </g>
</svg>